<?xml version="1.0" encoding="UTF-8"?>
<svg id="Layer_1" data-name="Layer 1" xmlns="http://www.w3.org/2000/svg" viewBox="0 0 442.47 264.36">
  <defs>
    <style>
      .cls-1 {
        fill: #fff;
      }

      .cls-2 {
        fill: #bbc098;
      }
    </style>
  </defs>
  <g>
    <path class="cls-2" d="M113.42,126.2c0-7.61,5.64-13,13.1-13s13.05,5.39,13.05,13-5.64,13-13.05,13-13.1-5.39-13.1-13ZM136.3,126.2c0-7.27-4.15-12.36-9.79-12.36s-9.84,4.89-9.84,12.36,4.15,12.36,9.84,12.36,9.79-4.89,9.79-12.36Z"/>
    <path class="cls-2" d="M159.2,121.65c0-3.91-2.37-7.37-5.73-7.37s-6.03,3.16-6.03,6.97v17.45h-3.11v-25.02h3.11v4.45c1.14-2.92,3.71-4.94,7.07-4.94,4.6,0,7.81,3.61,7.81,8.21v17.3h-3.11v-17.06Z"/>
    <path class="cls-2" d="M192.47,129.95c-1.48,5.59-6.43,9.24-12.56,9.24-7.47,0-13.1-5.39-13.1-13s5.64-13,13.1-13c6.13,0,11.07,3.66,12.56,9.2h-22c-.25,1.19-.4,2.42-.4,3.81,0,7.27,4.15,12.36,9.84,12.36,4.55,0,8.21-3.31,9.39-8.6h3.16ZM170.62,121.75h18.54c-1.33-4.55-4.8-7.91-9.24-7.91s-7.96,3.02-9.29,7.91Z"/>
  </g>
  <g>
    <path class="cls-1" d="M206.85,132.38v.64c0,3.21,1.48,5.54,4.5,5.54,2.08,0,4.15-1.53,4.2-4.8.05-3.41-2.22-4.84-4.7-6.13-3.16-1.58-6.82-3.56-6.77-8.11.1-4.05,3.02-6.33,6.92-6.33s6.97,2.92,6.87,6.72h-3.21c0-.2.05-.44.05-.64,0-3.11-.84-5.44-3.86-5.44-2.18,0-3.71,1.68-3.76,4.65-.05,3.96,2.77,5.19,5.64,6.62,3.02,1.53,5.83,3.36,5.83,7.51-.1,4-3.16,6.58-7.37,6.58s-7.71-2.97-7.66-6.82h3.31Z"/>
    <path class="cls-1" d="M247.14,130c-1.48,5.54-6.23,9.2-12.21,9.2-7.47,0-13.1-5.39-13.1-13s5.64-13,13.1-13c5.98,0,10.73,3.66,12.21,9.2h-3.21c-1.14-4.94-4.5-8.55-9-8.55-5.59,0-9.84,4.89-9.84,12.36s4.15,12.36,9.84,12.36c4.4,0,7.86-3.51,9-8.55h3.21Z"/>
    <path class="cls-1" d="M250.25,131.88c0-4.4,3.21-7.66,8.31-7.66h6.03v-4.6c0-3.51-2.03-5.78-4.7-5.78-2.42,0-4.7,2.22-4.7,5.83v1.14h-3.21c0-4.4,3.41-7.61,7.91-7.61s7.86,3.21,7.86,7.71v17.8h-3.16v-3.71c-1.09,2.57-3.46,4.2-6.62,4.2-4.5,0-7.71-3.16-7.71-7.32ZM264.59,131.63v-6.77h-4.8c-4,0-6.28,2.97-6.28,6.97,0,3.56,2.27,6.28,5.49,6.28s5.59-2.77,5.59-6.48Z"/>
    <path class="cls-1" d="M276.46,113.69v7.12c1.78-4.65,5.83-7.61,11.07-7.61,7.07,0,12.21,5.54,12.21,13s-5.14,13-12.21,13c-5.24,0-9.29-2.97-11.07-7.61v19.58h-3.16v-37.47h3.16ZM276.26,126.2c0,7.17,4.55,12.16,10.23,12.16s9.99-4.99,9.99-12.16-4.3-12.16-9.99-12.16-10.23,4.99-10.23,12.16Z"/>
    <path class="cls-1" d="M329.06,129.95c-1.48,5.59-6.43,9.24-12.56,9.24-7.47,0-13.1-5.39-13.1-13s5.64-13,13.1-13c6.13,0,11.07,3.66,12.56,9.2h-22c-.25,1.19-.4,2.42-.4,3.81,0,7.27,4.15,12.36,9.84,12.36,4.55,0,8.21-3.31,9.39-8.6h3.16ZM307.21,121.75h18.54c-1.33-4.55-4.8-7.91-9.24-7.91s-7.96,3.02-9.29,7.91Z"/>
  </g>
</svg>